<svg xmlns="http://www.w3.org/2000/svg" xmlns:xlink="http://www.w3.org/1999/xlink" width="500" zoomAndPan="magnify" viewBox="0 0 375 374.999991" height="500" preserveAspectRatio="xMidYMid meet" version="1.0"><defs><g/></defs><rect x="-37.5" width="450" fill="#ffffff" y="-37.499999" height="449.999989" fill-opacity="1"/><rect x="-37.5" width="450" fill="#f6f4f0" y="-37.499999" height="449.999989" fill-opacity="1"/><g fill="#222222" fill-opacity="1"><g transform="translate(89.789061, 153.572335)"><g><path d="M 33.3125 0 L 23.96875 0 L 22.375 -10.6875 L 11.015625 -10.6875 L 9.421875 0 L 0.921875 0 L 10.34375 -58.890625 L 23.890625 -58.890625 Z M 12.203125 -18.671875 L 21.109375 -18.671875 L 16.65625 -48.453125 Z M 12.203125 -18.671875 "/></g></g></g><g fill="#222222" fill-opacity="1"><g transform="translate(124.024723, 153.572335)"><g><path d="M 12.203125 -58.890625 L 12.203125 -13.453125 C 12.203125 -11.328125 12.632812 -9.84375 13.5 -9 C 14.375 -8.15625 15.539062 -7.734375 17 -7.734375 C 18.457031 -7.734375 19.617188 -8.15625 20.484375 -9 C 21.347656 -9.84375 21.78125 -11.328125 21.78125 -13.453125 L 21.78125 -58.890625 L 30.53125 -58.890625 L 30.53125 -14.046875 C 30.53125 -9.273438 29.367188 -5.613281 27.046875 -3.0625 C 24.722656 -0.519531 21.285156 0.75 16.734375 0.75 C 12.191406 0.75 8.753906 -0.519531 6.421875 -3.0625 C 4.097656 -5.613281 2.9375 -9.273438 2.9375 -14.046875 L 2.9375 -58.890625 Z M 12.203125 -58.890625 "/></g></g></g><g fill="#222222" fill-opacity="1"><g transform="translate(157.503335, 153.572335)"><g><path d="M 17.25 -32.8125 L 30.203125 -32.8125 L 30.203125 -14.140625 C 30.203125 -9.367188 29.035156 -5.707031 26.703125 -3.15625 C 24.378906 -0.601562 20.945312 0.671875 16.40625 0.671875 C 11.863281 0.671875 8.425781 -0.601562 6.09375 -3.15625 C 3.769531 -5.707031 2.609375 -9.367188 2.609375 -14.140625 L 2.609375 -44.75 C 2.609375 -49.519531 3.769531 -53.179688 6.09375 -55.734375 C 8.425781 -58.285156 11.863281 -59.5625 16.40625 -59.5625 C 20.945312 -59.5625 24.378906 -58.285156 26.703125 -55.734375 C 29.035156 -53.179688 30.203125 -49.519531 30.203125 -44.75 L 30.203125 -39.03125 L 21.453125 -39.03125 L 21.453125 -45.34375 C 21.453125 -47.476562 21.015625 -48.976562 20.140625 -49.84375 C 19.273438 -50.707031 18.113281 -51.140625 16.65625 -51.140625 C 15.195312 -51.140625 14.03125 -50.707031 13.15625 -49.84375 C 12.289062 -48.976562 11.859375 -47.476562 11.859375 -45.34375 L 11.859375 -13.546875 C 11.859375 -11.410156 12.289062 -9.921875 13.15625 -9.078125 C 14.03125 -8.242188 15.195312 -7.828125 16.65625 -7.828125 C 18.113281 -7.828125 19.273438 -8.242188 20.140625 -9.078125 C 21.015625 -9.921875 21.453125 -11.410156 21.453125 -13.546875 L 21.453125 -24.390625 L 17.25 -24.390625 Z M 17.25 -32.8125 "/></g></g></g><g fill="#222222" fill-opacity="1"><g transform="translate(190.309013, 153.572335)"><g><path d="M 12.203125 -58.890625 L 12.203125 -13.453125 C 12.203125 -11.328125 12.632812 -9.84375 13.5 -9 C 14.375 -8.15625 15.539062 -7.734375 17 -7.734375 C 18.457031 -7.734375 19.617188 -8.15625 20.484375 -9 C 21.347656 -9.84375 21.78125 -11.328125 21.78125 -13.453125 L 21.78125 -58.890625 L 30.53125 -58.890625 L 30.53125 -14.046875 C 30.53125 -9.273438 29.367188 -5.613281 27.046875 -3.0625 C 24.722656 -0.519531 21.285156 0.75 16.734375 0.75 C 12.191406 0.75 8.753906 -0.519531 6.421875 -3.0625 C 4.097656 -5.613281 2.9375 -9.273438 2.9375 -14.046875 L 2.9375 -58.890625 Z M 12.203125 -58.890625 "/></g></g></g><g fill="#222222" fill-opacity="1"><g transform="translate(223.787625, 153.572335)"><g><path d="M 2.1875 -44.75 C 2.1875 -49.519531 3.320312 -53.179688 5.59375 -55.734375 C 7.863281 -58.285156 11.269531 -59.5625 15.8125 -59.5625 C 20.351562 -59.5625 23.757812 -58.285156 26.03125 -55.734375 C 28.300781 -53.179688 29.4375 -49.519531 29.4375 -44.75 L 29.4375 -42.90625 L 20.6875 -42.90625 L 20.6875 -45.34375 C 20.6875 -47.476562 20.28125 -48.976562 19.46875 -49.84375 C 18.65625 -50.707031 17.519531 -51.140625 16.0625 -51.140625 C 14.601562 -51.140625 13.46875 -50.707031 12.65625 -49.84375 C 11.84375 -48.976562 11.4375 -47.476562 11.4375 -45.34375 C 11.4375 -43.320312 11.882812 -41.539062 12.78125 -40 C 13.6875 -38.457031 14.8125 -37 16.15625 -35.625 C 17.5 -34.25 18.941406 -32.875 20.484375 -31.5 C 22.023438 -30.125 23.46875 -28.625 24.8125 -27 C 26.15625 -25.375 27.273438 -23.523438 28.171875 -21.453125 C 29.078125 -19.378906 29.53125 -16.941406 29.53125 -14.140625 C 29.53125 -9.367188 28.363281 -5.707031 26.03125 -3.15625 C 23.707031 -0.601562 20.273438 0.671875 15.734375 0.671875 C 11.191406 0.671875 7.753906 -0.601562 5.421875 -3.15625 C 3.097656 -5.707031 1.9375 -9.367188 1.9375 -14.140625 L 1.9375 -17.75 L 10.6875 -17.75 L 10.6875 -13.546875 C 10.6875 -11.410156 11.117188 -9.921875 11.984375 -9.078125 C 12.859375 -8.242188 14.023438 -7.828125 15.484375 -7.828125 C 16.941406 -7.828125 18.101562 -8.242188 18.96875 -9.078125 C 19.84375 -9.921875 20.28125 -11.410156 20.28125 -13.546875 C 20.28125 -15.566406 19.828125 -17.347656 18.921875 -18.890625 C 18.023438 -20.429688 16.90625 -21.890625 15.5625 -23.265625 C 14.21875 -24.640625 12.773438 -26.007812 11.234375 -27.375 C 9.691406 -28.75 8.242188 -30.25 6.890625 -31.875 C 5.546875 -33.507812 4.425781 -35.363281 3.53125 -37.4375 C 2.632812 -39.507812 2.1875 -41.945312 2.1875 -44.75 Z M 2.1875 -44.75 "/></g></g></g><g fill="#222222" fill-opacity="1"><g transform="translate(255.24742, 153.572335)"><g><path d="M 0.671875 -58.890625 L 29.28125 -58.890625 L 29.28125 -50.46875 L 19.59375 -50.46875 L 19.59375 0 L 10.34375 0 L 10.34375 -50.46875 L 0.671875 -50.46875 Z M 0.671875 -58.890625 "/></g></g></g><g fill="#222222" fill-opacity="1"><g transform="translate(110.906247, 242.072329)"><g><path d="M 0.84375 -8.40625 C 1.34375 -8.351562 1.875 -8.328125 2.4375 -8.328125 C 3 -8.328125 3.53125 -8.328125 4.03125 -8.328125 C 5.488281 -8.328125 6.738281 -8.691406 7.78125 -9.421875 C 8.820312 -10.148438 9.34375 -11.664062 9.34375 -13.96875 L 9.34375 -58.890625 L 18.59375 -58.890625 L 18.59375 -14.640625 C 18.59375 -11.660156 18.226562 -9.21875 17.5 -7.3125 C 16.769531 -5.40625 15.785156 -3.90625 14.546875 -2.8125 C 13.316406 -1.71875 11.898438 -0.945312 10.296875 -0.5 C 8.703125 -0.0507812 7.035156 0.171875 5.296875 0.171875 C 4.453125 0.171875 3.691406 0.171875 3.015625 0.171875 C 2.347656 0.171875 1.625 0.113281 0.84375 0 Z M 0.84375 -8.40625 "/></g></g></g><g fill="#222222" fill-opacity="1"><g transform="translate(132.440227, 242.072329)"><g><path d="M 11.859375 -13.546875 C 11.859375 -11.410156 12.289062 -9.90625 13.15625 -9.03125 C 14.03125 -8.164062 15.195312 -7.734375 16.65625 -7.734375 C 18.113281 -7.734375 19.273438 -8.164062 20.140625 -9.03125 C 21.015625 -9.90625 21.453125 -11.410156 21.453125 -13.546875 L 21.453125 -45.34375 C 21.453125 -47.476562 21.015625 -48.976562 20.140625 -49.84375 C 19.273438 -50.707031 18.113281 -51.140625 16.65625 -51.140625 C 15.195312 -51.140625 14.03125 -50.707031 13.15625 -49.84375 C 12.289062 -48.976562 11.859375 -47.476562 11.859375 -45.34375 Z M 2.609375 -44.75 C 2.609375 -49.519531 3.8125 -53.179688 6.21875 -55.734375 C 8.632812 -58.285156 12.113281 -59.5625 16.65625 -59.5625 C 21.195312 -59.5625 24.671875 -58.285156 27.078125 -55.734375 C 29.492188 -53.179688 30.703125 -49.519531 30.703125 -44.75 L 30.703125 -14.140625 C 30.703125 -9.367188 29.492188 -5.707031 27.078125 -3.15625 C 24.671875 -0.601562 21.195312 0.671875 16.65625 0.671875 C 12.113281 0.671875 8.632812 -0.601562 6.21875 -3.15625 C 3.8125 -5.707031 2.609375 -9.367188 2.609375 -14.140625 Z M 2.609375 -44.75 "/></g></g></g><g fill="#222222" fill-opacity="1"><g transform="translate(165.7506, 242.072329)"><g><path d="M 11.609375 -42.65625 L 11.609375 0 L 3.28125 0 L 3.28125 -58.890625 L 14.890625 -58.890625 L 24.390625 -23.640625 L 24.390625 -58.890625 L 32.640625 -58.890625 L 32.640625 0 L 23.140625 0 Z M 11.609375 -42.65625 "/></g></g></g><g fill="#222222" fill-opacity="1"><g transform="translate(201.668601, 242.072329)"><g><path d="M 12.625 -34.078125 L 25.328125 -34.078125 L 25.328125 -25.65625 L 12.625 -25.65625 L 12.625 -8.40625 L 28.609375 -8.40625 L 28.609375 0 L 3.359375 0 L 3.359375 -58.890625 L 28.609375 -58.890625 L 28.609375 -50.46875 L 12.625 -50.46875 Z M 12.625 -34.078125 "/></g></g></g><g fill="#222222" fill-opacity="1"><g transform="translate(232.6237, 242.072329)"><g><path d="M 2.1875 -44.75 C 2.1875 -49.519531 3.320312 -53.179688 5.59375 -55.734375 C 7.863281 -58.285156 11.269531 -59.5625 15.8125 -59.5625 C 20.351562 -59.5625 23.757812 -58.285156 26.03125 -55.734375 C 28.300781 -53.179688 29.4375 -49.519531 29.4375 -44.75 L 29.4375 -42.90625 L 20.6875 -42.90625 L 20.6875 -45.34375 C 20.6875 -47.476562 20.28125 -48.976562 19.46875 -49.84375 C 18.65625 -50.707031 17.519531 -51.140625 16.0625 -51.140625 C 14.601562 -51.140625 13.46875 -50.707031 12.65625 -49.84375 C 11.84375 -48.976562 11.4375 -47.476562 11.4375 -45.34375 C 11.4375 -43.320312 11.882812 -41.539062 12.78125 -40 C 13.6875 -38.457031 14.8125 -37 16.15625 -35.625 C 17.5 -34.25 18.941406 -32.875 20.484375 -31.5 C 22.023438 -30.125 23.46875 -28.625 24.8125 -27 C 26.15625 -25.375 27.273438 -23.523438 28.171875 -21.453125 C 29.078125 -19.378906 29.53125 -16.941406 29.53125 -14.140625 C 29.53125 -9.367188 28.363281 -5.707031 26.03125 -3.15625 C 23.707031 -0.601562 20.273438 0.671875 15.734375 0.671875 C 11.191406 0.671875 7.753906 -0.601562 5.421875 -3.15625 C 3.097656 -5.707031 1.9375 -9.367188 1.9375 -14.140625 L 1.9375 -17.75 L 10.6875 -17.75 L 10.6875 -13.546875 C 10.6875 -11.410156 11.117188 -9.921875 11.984375 -9.078125 C 12.859375 -8.242188 14.023438 -7.828125 15.484375 -7.828125 C 16.941406 -7.828125 18.101562 -8.242188 18.96875 -9.078125 C 19.84375 -9.921875 20.28125 -11.410156 20.28125 -13.546875 C 20.28125 -15.566406 19.828125 -17.347656 18.921875 -18.890625 C 18.023438 -20.429688 16.90625 -21.890625 15.5625 -23.265625 C 14.21875 -24.640625 12.773438 -26.007812 11.234375 -27.375 C 9.691406 -28.75 8.242188 -30.25 6.890625 -31.875 C 5.546875 -33.507812 4.425781 -35.363281 3.53125 -37.4375 C 2.632812 -39.507812 2.1875 -41.945312 2.1875 -44.75 Z M 2.1875 -44.75 "/></g></g></g><g fill="#222222" fill-opacity="1"><g transform="translate(95.596857, 286.680948)"><g><path d="M 4.8125 0 C 4.78125 -0.0820312 4.753906 -0.160156 4.734375 -0.234375 C 4.710938 -0.304688 4.691406 -0.394531 4.671875 -0.5 C 4.648438 -0.601562 4.632812 -0.738281 4.625 -0.90625 C 4.625 -1.070312 4.625 -1.28125 4.625 -1.53125 L 4.625 -3.484375 C 4.625 -4.066406 4.519531 -4.476562 4.3125 -4.71875 C 4.113281 -4.957031 3.789062 -5.078125 3.34375 -5.078125 L 2.671875 -5.078125 L 2.671875 0 L 0.71875 0 L 0.71875 -12.453125 L 3.671875 -12.453125 C 4.691406 -12.453125 5.425781 -12.210938 5.875 -11.734375 C 6.332031 -11.265625 6.5625 -10.550781 6.5625 -9.59375 L 6.5625 -8.609375 C 6.5625 -7.328125 6.132812 -6.488281 5.28125 -6.09375 C 5.78125 -5.882812 6.117188 -5.550781 6.296875 -5.09375 C 6.484375 -4.632812 6.578125 -4.082031 6.578125 -3.4375 L 6.578125 -1.515625 C 6.578125 -1.203125 6.585938 -0.929688 6.609375 -0.703125 C 6.640625 -0.472656 6.703125 -0.238281 6.796875 0 Z M 2.671875 -10.671875 L 2.671875 -6.859375 L 3.4375 -6.859375 C 3.800781 -6.859375 4.085938 -6.953125 4.296875 -7.140625 C 4.503906 -7.328125 4.609375 -7.671875 4.609375 -8.171875 L 4.609375 -9.390625 C 4.609375 -9.847656 4.523438 -10.175781 4.359375 -10.375 C 4.203125 -10.570312 3.953125 -10.671875 3.609375 -10.671875 Z M 2.671875 -10.671875 "/></g></g></g><g fill="#222222" fill-opacity="1"><g transform="translate(108.729432, 286.680948)"><g><path d="M 2.671875 -7.203125 L 5.359375 -7.203125 L 5.359375 -5.421875 L 2.671875 -5.421875 L 2.671875 -1.78125 L 6.046875 -1.78125 L 6.046875 0 L 0.71875 0 L 0.71875 -12.453125 L 6.046875 -12.453125 L 6.046875 -10.671875 L 2.671875 -10.671875 Z M 2.671875 -7.203125 "/></g></g></g><g fill="#222222" fill-opacity="1"><g transform="translate(121.257176, 286.680948)"><g><path d="M 2.453125 -9.015625 L 2.453125 0 L 0.6875 0 L 0.6875 -12.453125 L 3.15625 -12.453125 L 5.15625 -5 L 5.15625 -12.453125 L 6.90625 -12.453125 L 6.90625 0 L 4.890625 0 Z M 2.453125 -9.015625 "/></g></g></g><g fill="#222222" fill-opacity="1"><g transform="translate(134.83448, 286.680948)"><g><path d="M 2.671875 -7.203125 L 5.359375 -7.203125 L 5.359375 -5.421875 L 2.671875 -5.421875 L 2.671875 -1.78125 L 6.046875 -1.78125 L 6.046875 0 L 0.71875 0 L 0.71875 -12.453125 L 6.046875 -12.453125 L 6.046875 -10.671875 L 2.671875 -10.671875 Z M 2.671875 -7.203125 "/></g></g></g><g fill="#222222" fill-opacity="1"><g transform="translate(147.362223, 286.680948)"><g><path d="M 5.046875 -6.640625 L 4.34375 0 L 1.65625 0 L 0.265625 -12.453125 L 2.171875 -12.453125 L 3.21875 -2.640625 L 4.171875 -12.453125 L 6.046875 -12.453125 L 7.03125 -2.5625 L 8.046875 -12.453125 L 9.75 -12.453125 L 8.359375 0 L 5.765625 0 Z M 5.046875 -6.640625 "/></g></g></g><g fill="#222222" fill-opacity="1"><g transform="translate(163.358842, 286.680948)"><g><path d="M 2.671875 -7.203125 L 5.359375 -7.203125 L 5.359375 -5.421875 L 2.671875 -5.421875 L 2.671875 -1.78125 L 6.046875 -1.78125 L 6.046875 0 L 0.71875 0 L 0.71875 -12.453125 L 6.046875 -12.453125 L 6.046875 -10.671875 L 2.671875 -10.671875 Z M 2.671875 -7.203125 "/></g></g></g><g fill="#222222" fill-opacity="1"><g transform="translate(175.886586, 286.680948)"><g><path d="M 0.71875 -12.453125 L 3.8125 -12.453125 C 4.789062 -12.453125 5.519531 -12.191406 6 -11.671875 C 6.488281 -11.148438 6.734375 -10.382812 6.734375 -9.375 L 6.734375 -3.078125 C 6.734375 -2.066406 6.488281 -1.300781 6 -0.78125 C 5.519531 -0.257812 4.789062 0 3.8125 0 L 0.71875 0 Z M 2.671875 -10.671875 L 2.671875 -1.78125 L 3.765625 -1.78125 C 4.078125 -1.78125 4.320312 -1.867188 4.5 -2.046875 C 4.675781 -2.222656 4.765625 -2.535156 4.765625 -2.984375 L 4.765625 -9.46875 C 4.765625 -9.914062 4.675781 -10.226562 4.5 -10.40625 C 4.320312 -10.582031 4.078125 -10.671875 3.765625 -10.671875 Z M 2.671875 -10.671875 "/></g></g></g><g fill="#222222" fill-opacity="1"><g transform="translate(189.1259, 286.680948)"><g/></g></g><g fill="#222222" fill-opacity="1"><g transform="translate(197.864562, 286.680948)"><g><path d="M 2.671875 -6.921875 L 5.203125 -6.921875 L 5.203125 -5.140625 L 2.671875 -5.140625 L 2.671875 0 L 0.71875 0 L 0.71875 -12.453125 L 5.890625 -12.453125 L 5.890625 -10.671875 L 2.671875 -10.671875 Z M 2.671875 -6.921875 "/></g></g></g><g fill="#222222" fill-opacity="1"><g transform="translate(209.965372, 286.680948)"><g><path d="M 7.046875 0 L 5.078125 0 L 4.734375 -2.265625 L 2.328125 -2.265625 L 2 0 L 0.203125 0 L 2.1875 -12.453125 L 5.046875 -12.453125 Z M 2.578125 -3.953125 L 4.46875 -3.953125 L 3.53125 -10.25 Z M 2.578125 -3.953125 "/></g></g></g><g fill="#222222" fill-opacity="1"><g transform="translate(223.186891, 286.680948)"><g><path d="M 0.46875 -9.46875 C 0.46875 -10.476562 0.707031 -11.25 1.1875 -11.78125 C 1.664062 -12.320312 2.382812 -12.59375 3.34375 -12.59375 C 4.300781 -12.59375 5.019531 -12.320312 5.5 -11.78125 C 5.988281 -11.25 6.234375 -10.476562 6.234375 -9.46875 L 6.234375 -9.078125 L 4.375 -9.078125 L 4.375 -9.59375 C 4.375 -10.039062 4.285156 -10.359375 4.109375 -10.546875 C 3.941406 -10.734375 3.707031 -10.828125 3.40625 -10.828125 C 3.09375 -10.828125 2.847656 -10.734375 2.671875 -10.546875 C 2.503906 -10.359375 2.421875 -10.039062 2.421875 -9.59375 C 2.421875 -9.164062 2.515625 -8.785156 2.703125 -8.453125 C 2.890625 -8.128906 3.125 -7.820312 3.40625 -7.53125 C 3.695312 -7.238281 4.003906 -6.945312 4.328125 -6.65625 C 4.660156 -6.375 4.96875 -6.0625 5.25 -5.71875 C 5.53125 -5.375 5.765625 -4.976562 5.953125 -4.53125 C 6.148438 -4.09375 6.25 -3.578125 6.25 -2.984375 C 6.25 -1.984375 6 -1.210938 5.5 -0.671875 C 5.007812 -0.128906 4.285156 0.140625 3.328125 0.140625 C 2.367188 0.140625 1.640625 -0.128906 1.140625 -0.671875 C 0.648438 -1.210938 0.40625 -1.984375 0.40625 -2.984375 L 0.40625 -3.75 L 2.265625 -3.75 L 2.265625 -2.859375 C 2.265625 -2.410156 2.351562 -2.097656 2.53125 -1.921875 C 2.71875 -1.742188 2.96875 -1.65625 3.28125 -1.65625 C 3.582031 -1.65625 3.828125 -1.742188 4.015625 -1.921875 C 4.203125 -2.097656 4.296875 -2.410156 4.296875 -2.859375 C 4.296875 -3.285156 4.195312 -3.660156 4 -3.984375 C 3.8125 -4.316406 3.570312 -4.628906 3.28125 -4.921875 C 3 -5.210938 2.695312 -5.503906 2.375 -5.796875 C 2.050781 -6.085938 1.742188 -6.40625 1.453125 -6.75 C 1.171875 -7.09375 0.9375 -7.484375 0.75 -7.921875 C 0.5625 -8.359375 0.46875 -8.875 0.46875 -9.46875 Z M 0.46875 -9.46875 "/></g></g></g><g fill="#222222" fill-opacity="1"><g transform="translate(235.821374, 286.680948)"><g><path d="M 2.671875 0 L 0.71875 0 L 0.71875 -12.453125 L 2.671875 -12.453125 L 2.671875 -7.125 L 4.890625 -7.125 L 4.890625 -12.453125 L 6.890625 -12.453125 L 6.890625 0 L 4.890625 0 L 4.890625 -5.34375 L 2.671875 -5.34375 Z M 2.671875 0 "/></g></g></g><g fill="#222222" fill-opacity="1"><g transform="translate(249.398678, 286.680948)"><g><path d="M 0.71875 -12.453125 L 2.671875 -12.453125 L 2.671875 0 L 0.71875 0 Z M 0.71875 -12.453125 "/></g></g></g><g fill="#222222" fill-opacity="1"><g transform="translate(258.759956, 286.680948)"><g><path d="M 2.515625 -2.859375 C 2.515625 -2.410156 2.601562 -2.09375 2.78125 -1.90625 C 2.96875 -1.726562 3.21875 -1.640625 3.53125 -1.640625 C 3.832031 -1.640625 4.070312 -1.726562 4.25 -1.90625 C 4.4375 -2.09375 4.53125 -2.410156 4.53125 -2.859375 L 4.53125 -9.59375 C 4.53125 -10.039062 4.4375 -10.359375 4.25 -10.546875 C 4.070312 -10.734375 3.832031 -10.828125 3.53125 -10.828125 C 3.21875 -10.828125 2.96875 -10.734375 2.78125 -10.546875 C 2.601562 -10.359375 2.515625 -10.039062 2.515625 -9.59375 Z M 0.546875 -9.46875 C 0.546875 -10.476562 0.800781 -11.25 1.3125 -11.78125 C 1.820312 -12.320312 2.5625 -12.59375 3.53125 -12.59375 C 4.488281 -12.59375 5.222656 -12.320312 5.734375 -11.78125 C 6.242188 -11.25 6.5 -10.476562 6.5 -9.46875 L 6.5 -2.984375 C 6.5 -1.984375 6.242188 -1.210938 5.734375 -0.671875 C 5.222656 -0.128906 4.488281 0.140625 3.53125 0.140625 C 2.5625 0.140625 1.820312 -0.128906 1.3125 -0.671875 C 0.800781 -1.210938 0.546875 -1.984375 0.546875 -2.984375 Z M 0.546875 -9.46875 "/></g></g></g><g fill="#222222" fill-opacity="1"><g transform="translate(271.785792, 286.680948)"><g><path d="M 2.453125 -9.015625 L 2.453125 0 L 0.6875 0 L 0.6875 -12.453125 L 3.15625 -12.453125 L 5.15625 -5 L 5.15625 -12.453125 L 6.90625 -12.453125 L 6.90625 0 L 4.890625 0 Z M 2.453125 -9.015625 "/></g></g></g></svg>