<svg xmlns="http://www.w3.org/2000/svg" xmlns:xlink="http://www.w3.org/1999/xlink" width="2000" zoomAndPan="magnify" viewBox="0 0 1500 749.999995" height="1000" preserveAspectRatio="xMidYMid meet" version="1.0"><defs><g/><clipPath id="9c62eedf2e"><rect x="0" width="1021" y="0" height="238"/></clipPath></defs><g transform="matrix(1, 0, 0, 1, 239, 256)"><g clip-path="url(#9c62eedf2e)"><g fill="#f6f4f0" fill-opacity="1"><g transform="translate(1.898464, 176.015224)"><g><path d="M 93.796875 0 L 67.5 0 L 63 -30.078125 L 31.03125 -30.078125 L 26.53125 0 L 2.609375 0 L 29.125 -165.796875 L 67.265625 -165.796875 Z M 34.34375 -52.578125 L 59.453125 -52.578125 L 46.890625 -136.421875 Z M 34.34375 -52.578125 "/></g></g></g><g fill="#f6f4f0" fill-opacity="1"><g transform="translate(98.291255, 176.015224)"><g><path d="M 34.34375 -165.796875 L 34.34375 -37.890625 C 34.34375 -31.890625 35.566406 -27.707031 38.015625 -25.34375 C 40.460938 -22.976562 43.738281 -21.796875 47.84375 -21.796875 C 51.945312 -21.796875 55.222656 -22.976562 57.671875 -25.34375 C 60.117188 -27.707031 61.34375 -31.890625 61.34375 -37.890625 L 61.34375 -165.796875 L 85.96875 -165.796875 L 85.96875 -39.546875 C 85.96875 -26.128906 82.691406 -15.828125 76.140625 -8.640625 C 69.585938 -1.460938 59.914062 2.125 47.125 2.125 C 34.34375 2.125 24.675781 -1.460938 18.125 -8.640625 C 11.570312 -15.828125 8.296875 -26.128906 8.296875 -39.546875 L 8.296875 -165.796875 Z M 34.34375 -165.796875 "/></g></g></g><g fill="#f6f4f0" fill-opacity="1"><g transform="translate(192.552524, 176.015224)"><g><path d="M 48.546875 -92.375 L 85.03125 -92.375 L 85.03125 -39.796875 C 85.03125 -26.367188 81.753906 -16.0625 75.203125 -8.875 C 68.648438 -1.695312 58.976562 1.890625 46.1875 1.890625 C 33.394531 1.890625 23.722656 -1.695312 17.171875 -8.875 C 10.617188 -16.0625 7.34375 -26.367188 7.34375 -39.796875 L 7.34375 -126 C 7.34375 -139.414062 10.617188 -149.71875 17.171875 -156.90625 C 23.722656 -164.09375 33.394531 -167.6875 46.1875 -167.6875 C 58.976562 -167.6875 68.648438 -164.09375 75.203125 -156.90625 C 81.753906 -149.71875 85.03125 -139.414062 85.03125 -126 L 85.03125 -109.890625 L 60.390625 -109.890625 L 60.390625 -127.65625 C 60.390625 -133.65625 59.164062 -137.878906 56.71875 -140.328125 C 54.269531 -142.773438 50.992188 -144 46.890625 -144 C 42.785156 -144 39.507812 -142.773438 37.0625 -140.328125 C 34.613281 -137.878906 33.390625 -133.65625 33.390625 -127.65625 L 33.390625 -38.125 C 33.390625 -32.125 34.613281 -27.941406 37.0625 -25.578125 C 39.507812 -23.210938 42.785156 -22.03125 46.890625 -22.03125 C 50.992188 -22.03125 54.269531 -23.210938 56.71875 -25.578125 C 59.164062 -27.941406 60.390625 -32.125 60.390625 -38.125 L 60.390625 -68.6875 L 48.546875 -68.6875 Z M 48.546875 -92.375 "/></g></g></g><g fill="#f6f4f0" fill-opacity="1"><g transform="translate(284.919099, 176.015224)"><g><path d="M 34.34375 -165.796875 L 34.34375 -37.890625 C 34.34375 -31.890625 35.566406 -27.707031 38.015625 -25.34375 C 40.460938 -22.976562 43.738281 -21.796875 47.84375 -21.796875 C 51.945312 -21.796875 55.222656 -22.976562 57.671875 -25.34375 C 60.117188 -27.707031 61.34375 -31.890625 61.34375 -37.890625 L 61.34375 -165.796875 L 85.96875 -165.796875 L 85.96875 -39.546875 C 85.96875 -26.128906 82.691406 -15.828125 76.140625 -8.640625 C 69.585938 -1.460938 59.914062 2.125 47.125 2.125 C 34.34375 2.125 24.675781 -1.460938 18.125 -8.640625 C 11.570312 -15.828125 8.296875 -26.128906 8.296875 -39.546875 L 8.296875 -165.796875 Z M 34.34375 -165.796875 "/></g></g></g><g fill="#f6f4f0" fill-opacity="1"><g transform="translate(379.180368, 176.015224)"><g><path d="M 6.15625 -126 C 6.15625 -139.414062 9.351562 -149.71875 15.75 -156.90625 C 22.144531 -164.09375 31.738281 -167.6875 44.53125 -167.6875 C 57.320312 -167.6875 66.910156 -164.09375 73.296875 -156.90625 C 79.691406 -149.71875 82.890625 -139.414062 82.890625 -126 L 82.890625 -120.796875 L 58.265625 -120.796875 L 58.265625 -127.65625 C 58.265625 -133.65625 57.117188 -137.878906 54.828125 -140.328125 C 52.535156 -142.773438 49.335938 -144 45.234375 -144 C 41.128906 -144 37.929688 -142.773438 35.640625 -140.328125 C 33.347656 -137.878906 32.203125 -133.65625 32.203125 -127.65625 C 32.203125 -121.96875 33.46875 -116.953125 36 -112.609375 C 38.53125 -108.273438 41.6875 -104.171875 45.46875 -100.296875 C 49.257812 -96.429688 53.328125 -92.5625 57.671875 -88.6875 C 62.015625 -84.820312 66.078125 -80.597656 69.859375 -76.015625 C 73.648438 -71.441406 76.804688 -66.234375 79.328125 -60.390625 C 81.859375 -54.546875 83.125 -47.679688 83.125 -39.796875 C 83.125 -26.367188 79.847656 -16.0625 73.296875 -8.875 C 66.742188 -1.695312 57.078125 1.890625 44.296875 1.890625 C 31.503906 1.890625 21.832031 -1.695312 15.28125 -8.875 C 8.726562 -16.0625 5.453125 -26.367188 5.453125 -39.796875 L 5.453125 -49.96875 L 30.078125 -49.96875 L 30.078125 -38.125 C 30.078125 -32.125 31.300781 -27.941406 33.75 -25.578125 C 36.195312 -23.210938 39.472656 -22.03125 43.578125 -22.03125 C 47.679688 -22.03125 50.957031 -23.210938 53.40625 -25.578125 C 55.851562 -27.941406 57.078125 -32.125 57.078125 -38.125 C 57.078125 -43.8125 55.8125 -48.828125 53.28125 -53.171875 C 50.757812 -57.515625 47.601562 -61.617188 43.8125 -65.484375 C 40.019531 -69.359375 35.953125 -73.226562 31.609375 -77.09375 C 27.273438 -80.957031 23.210938 -85.175781 19.421875 -89.75 C 15.628906 -94.332031 12.46875 -99.546875 9.9375 -105.390625 C 7.414062 -111.234375 6.15625 -118.101562 6.15625 -126 Z M 6.15625 -126 "/></g></g></g><g fill="#f6f4f0" fill-opacity="1"><g transform="translate(467.757521, 176.015224)"><g><path d="M 1.890625 -165.796875 L 82.421875 -165.796875 L 82.421875 -142.109375 L 55.1875 -142.109375 L 55.1875 0 L 29.125 0 L 29.125 -142.109375 L 1.890625 -142.109375 Z M 1.890625 -165.796875 "/></g></g></g><g fill="#f6f4f0" fill-opacity="1"><g transform="translate(552.071627, 176.015224)"><g/></g></g><g fill="#f6f4f0" fill-opacity="1"><g transform="translate(588.78144, 176.015224)"><g><path d="M 2.375 -23.6875 C 3.789062 -23.53125 5.285156 -23.453125 6.859375 -23.453125 C 8.441406 -23.453125 9.945312 -23.453125 11.375 -23.453125 C 15.476562 -23.453125 18.988281 -24.476562 21.90625 -26.53125 C 24.832031 -28.582031 26.296875 -32.84375 26.296875 -39.3125 L 26.296875 -165.796875 L 52.34375 -165.796875 L 52.34375 -41.203125 C 52.34375 -32.835938 51.316406 -25.96875 49.265625 -20.59375 C 47.210938 -15.226562 44.445312 -11.003906 40.96875 -7.921875 C 37.5 -4.847656 33.515625 -2.679688 29.015625 -1.421875 C 24.515625 -0.160156 19.816406 0.46875 14.921875 0.46875 C 12.554688 0.46875 10.425781 0.46875 8.53125 0.46875 C 6.632812 0.46875 4.582031 0.3125 2.375 0 Z M 2.375 -23.6875 "/></g></g></g><g fill="#f6f4f0" fill-opacity="1"><g transform="translate(649.411798, 176.015224)"><g><path d="M 33.390625 -38.125 C 33.390625 -32.125 34.613281 -27.898438 37.0625 -25.453125 C 39.507812 -23.015625 42.785156 -21.796875 46.890625 -21.796875 C 50.992188 -21.796875 54.269531 -23.015625 56.71875 -25.453125 C 59.164062 -27.898438 60.390625 -32.125 60.390625 -38.125 L 60.390625 -127.65625 C 60.390625 -133.65625 59.164062 -137.878906 56.71875 -140.328125 C 54.269531 -142.773438 50.992188 -144 46.890625 -144 C 42.785156 -144 39.507812 -142.773438 37.0625 -140.328125 C 34.613281 -137.878906 33.390625 -133.65625 33.390625 -127.65625 Z M 7.34375 -126 C 7.34375 -139.414062 10.734375 -149.71875 17.515625 -156.90625 C 24.304688 -164.09375 34.097656 -167.6875 46.890625 -167.6875 C 59.679688 -167.6875 69.472656 -164.09375 76.265625 -156.90625 C 83.054688 -149.71875 86.453125 -139.414062 86.453125 -126 L 86.453125 -39.796875 C 86.453125 -26.367188 83.054688 -16.0625 76.265625 -8.875 C 69.472656 -1.695312 59.679688 1.890625 46.890625 1.890625 C 34.097656 1.890625 24.304688 -1.695312 17.515625 -8.875 C 10.734375 -16.0625 7.34375 -26.367188 7.34375 -39.796875 Z M 7.34375 -126 "/></g></g></g><g fill="#f6f4f0" fill-opacity="1"><g transform="translate(743.199345, 176.015224)"><g><path d="M 32.6875 -120.078125 L 32.6875 0 L 9.234375 0 L 9.234375 -165.796875 L 41.921875 -165.796875 L 68.6875 -66.546875 L 68.6875 -165.796875 L 91.890625 -165.796875 L 91.890625 0 L 65.125 0 Z M 32.6875 -120.078125 "/></g></g></g><g fill="#f6f4f0" fill-opacity="1"><g transform="translate(844.328906, 176.015224)"><g><path d="M 35.53125 -95.921875 L 71.296875 -95.921875 L 71.296875 -72.234375 L 35.53125 -72.234375 L 35.53125 -23.6875 L 80.53125 -23.6875 L 80.53125 0 L 9.46875 0 L 9.46875 -165.796875 L 80.53125 -165.796875 L 80.53125 -142.109375 L 35.53125 -142.109375 Z M 35.53125 -95.921875 "/></g></g></g><g fill="#f6f4f0" fill-opacity="1"><g transform="translate(931.484991, 176.015224)"><g><path d="M 6.15625 -126 C 6.15625 -139.414062 9.351562 -149.71875 15.75 -156.90625 C 22.144531 -164.09375 31.738281 -167.6875 44.53125 -167.6875 C 57.320312 -167.6875 66.910156 -164.09375 73.296875 -156.90625 C 79.691406 -149.71875 82.890625 -139.414062 82.890625 -126 L 82.890625 -120.796875 L 58.265625 -120.796875 L 58.265625 -127.65625 C 58.265625 -133.65625 57.117188 -137.878906 54.828125 -140.328125 C 52.535156 -142.773438 49.335938 -144 45.234375 -144 C 41.128906 -144 37.929688 -142.773438 35.640625 -140.328125 C 33.347656 -137.878906 32.203125 -133.65625 32.203125 -127.65625 C 32.203125 -121.96875 33.46875 -116.953125 36 -112.609375 C 38.53125 -108.273438 41.6875 -104.171875 45.46875 -100.296875 C 49.257812 -96.429688 53.328125 -92.5625 57.671875 -88.6875 C 62.015625 -84.820312 66.078125 -80.597656 69.859375 -76.015625 C 73.648438 -71.441406 76.804688 -66.234375 79.328125 -60.390625 C 81.859375 -54.546875 83.125 -47.679688 83.125 -39.796875 C 83.125 -26.367188 79.847656 -16.0625 73.296875 -8.875 C 66.742188 -1.695312 57.078125 1.890625 44.296875 1.890625 C 31.503906 1.890625 21.832031 -1.695312 15.28125 -8.875 C 8.726562 -16.0625 5.453125 -26.367188 5.453125 -39.796875 L 5.453125 -49.96875 L 30.078125 -49.96875 L 30.078125 -38.125 C 30.078125 -32.125 31.300781 -27.941406 33.75 -25.578125 C 36.195312 -23.210938 39.472656 -22.03125 43.578125 -22.03125 C 47.679688 -22.03125 50.957031 -23.210938 53.40625 -25.578125 C 55.851562 -27.941406 57.078125 -32.125 57.078125 -38.125 C 57.078125 -43.8125 55.8125 -48.828125 53.28125 -53.171875 C 50.757812 -57.515625 47.601562 -61.617188 43.8125 -65.484375 C 40.019531 -69.359375 35.953125 -73.226562 31.609375 -77.09375 C 27.273438 -80.957031 23.210938 -85.175781 19.421875 -89.75 C 15.628906 -94.332031 12.46875 -99.546875 9.9375 -105.390625 C 7.414062 -111.234375 6.15625 -118.101562 6.15625 -126 Z M 6.15625 -126 "/></g></g></g></g></g></svg>